<?xml version="1.0" encoding="utf-8"?>
<!-- Generator: Adobe Illustrator 19.2.1, SVG Export Plug-In . SVG Version: 6.00 Build 0)  -->
<svg version="1.1" id="Layer_1" xmlns="http://www.w3.org/2000/svg" xmlns:xlink="http://www.w3.org/1999/xlink" x="0px" y="0px"
	 viewBox="0 0 274 34" style="enable-background:new 0 0 274 34;" xml:space="preserve">
<style type="text/css">
	.st0{fill:#E50000;}
</style>
<path class="st0" d="M122.1,0c-1.6,0-3.1,0.8-4,2.1L97.7,34l7.6,0l16.8-26.6l9.1,14.7h-17.3l3.8,5.9h17.5l3.6,5.9l7.6,0L126,2
	C125.1,0.8,123.7,0,122.1,0z M37.4,0.3H17.8C8.5,0.3,1,7.9,1,17.2S8.5,34,17.8,34l19.6,0c9.3,0,16.8-7.5,16.8-16.8
	C54.3,7.9,46.7,0.3,37.4,0.3z M37,28.1H18.3c-6,0-10.9-4.9-10.9-10.9S12.3,6.3,18.3,6.3H37c6,0,10.9,4.9,10.9,10.9
	C47.9,23.2,43,28.1,37,28.1z M149.5,17.2c0-6,4.9-10.9,10.9-10.9h19l3.8-5.9H160c-9.3,0-16.8,7.5-16.8,16.8S150.7,34,160,34h20
	l3.8-5.9h-23.4C154.4,28.1,149.5,23.2,149.5,17.2z M97.4,11.7c0-6.3-5.1-11.4-11.4-11.4H57.7V34h6.5V6.3h21.4c3,0,5.4,2.4,5.4,5.4
	s-2.4,5.4-5.4,5.4l-18.3,0L86.7,34h9.4l-13-10.9l3,0C92.3,23.1,97.4,18,97.4,11.7z M193.2,0.3h-6.5v30.5c0,0.8,0.3,1.6,0.9,2.2
	c0.6,0.6,1.5,1,2.4,1h29.5l3.8-5.9h-30.2V0.3z M228.7,20.1h27.7l3.8-5.9h-31.5c1.3-4.6,5.5-7.9,10.5-7.9h19l3.8-5.9h-23.3
	c-9.3,0-16.8,7.5-16.8,16.8S229.5,34,238.8,34h20l3.8-5.9h-23.4C234.2,28.1,230,24.7,228.7,20.1z M268.5,0.2c-2.1,0-3.8,1.7-3.8,3.8
	c0,2.1,1.7,3.8,3.8,3.8s3.8-1.7,3.8-3.8C272.3,1.8,270.6,0.2,268.5,0.2z M268.5,6.9c-1.6,0-3-1.3-3-3c0-1.6,1.3-3,3-3
	c1.6,0,3,1.3,3,3C271.4,5.6,270.1,6.9,268.5,6.9z M269.5,4.1c0.4-0.2,0.5-0.6,0.5-0.7c0-0.2,0-0.3,0-0.3c0-0.3-0.1-0.9-0.8-1.2
	c-0.3-0.1-0.5-0.1-1.1-0.1h-1.1v4.2h0.8V4.3h0.6l0.9,1.6h1l-1-1.8C269.4,4.1,269.4,4.1,269.5,4.1z M269.1,3.3
	c-0.2,0.2-0.5,0.3-0.7,0.3h-0.5V2.4h0.2c0.4,0,0.6,0,0.8,0.1c0.2,0.1,0.3,0.3,0.3,0.5C269.2,3.1,269.2,3.2,269.1,3.3z"/>
</svg>
