<?xml version="1.0" encoding="utf-8"?>
<!-- Generator: Adobe Illustrator 19.2.1, SVG Export Plug-In . SVG Version: 6.00 Build 0)  -->
<svg version="1.1" id="Layer_1" xmlns="http://www.w3.org/2000/svg" xmlns:xlink="http://www.w3.org/1999/xlink" x="0px" y="0px"
	 viewBox="0 0 274 34" style="enable-background:new 0 0 274 34;" xml:space="preserve">
<style type="text/css">
	.st0{fill:#E50000;}
</style>
<path class="st0" d="M121.1,0c-1.6,0-3.1,0.8-4,2.1L96.7,34h7.6l16.8-26.6l9.1,14.7h-17.3l3.8,5.9h17.5l3.6,5.9h7.6L125,2
	C124.1,0.8,122.7,0,121.1,0z M36.4,0.3H16.8C7.5,0.3,0,7.9,0,17.2S7.5,34,16.8,34h19.6c9.3,0,16.8-7.5,16.8-16.8
	C53.3,7.9,45.7,0.3,36.4,0.3z M36,28.1H17.3c-6,0-10.9-4.9-10.9-10.9S11.3,6.3,17.3,6.3H36c6,0,10.9,4.9,10.9,10.9S42,28.1,36,28.1z
	 M148.5,17.2c0-6,4.9-10.9,10.9-10.9h19l3.8-5.9H159c-9.3,0-16.8,7.5-16.8,16.8S149.7,34,159,34h20l3.8-5.9h-23.4
	C153.4,28.1,148.5,23.2,148.5,17.2z M96.4,11.7c0-6.3-5.1-11.4-11.4-11.4H56.7V34h6.5V6.3h21.4c3,0,5.4,2.4,5.4,5.4
	s-2.4,5.4-5.4,5.4H66.3L85.7,34h9.4l-13-10.9h3C91.3,23.1,96.4,18,96.4,11.7z M192.2,0.3h-6.5v30.5c0,0.8,0.3,1.6,0.9,2.2
	c0.6,0.6,1.5,1,2.4,1h29.5l3.8-5.9h-30.2V0.3H192.2z M227.7,20.1h27.7l3.8-5.9h-31.5c1.3-4.6,5.5-7.9,10.5-7.9h19l3.8-5.9h-23.3
	c-9.3,0-16.8,7.5-16.8,16.8S228.5,34,237.8,34h20l3.8-5.9h-23.4C233.2,28.1,229,24.7,227.7,20.1z M267.5,0.2c-2.1,0-3.8,1.7-3.8,3.8
	s1.7,3.8,3.8,3.8s3.8-1.7,3.8-3.8C271.3,1.8,269.6,0.2,267.5,0.2z M267.5,6.9c-1.6,0-3-1.3-3-3c0-1.6,1.3-3,3-3c1.6,0,3,1.3,3,3
	C270.4,5.6,269.1,6.9,267.5,6.9z M268.5,4.1c0.4-0.2,0.5-0.6,0.5-0.7c0-0.2,0-0.3,0-0.3c0-0.3-0.1-0.9-0.8-1.2
	c-0.3-0.1-0.5-0.1-1.1-0.1H266V6h0.8V4.3h0.6l0.9,1.6h1l-1-1.8C268.4,4.1,268.4,4.1,268.5,4.1z M268.1,3.3c-0.2,0.2-0.5,0.3-0.7,0.3
	h-0.5V2.4h0.2c0.4,0,0.6,0,0.8,0.1c0.2,0.1,0.3,0.3,0.3,0.5C268.2,3.1,268.2,3.2,268.1,3.3z"/>
</svg>
